<svg width="55" height="55" viewBox="0 0 55 55" fill="none" xmlns="http://www.w3.org/2000/svg">
<g filter="url(#filter0_d_10_4)">
<path d="M45.4944 44L30.5181 29.0236C29.3792 30.0106 28.0505 30.7794 26.5319 31.3299C25.0134 31.8803 23.4 32.1556 21.6917 32.1556C17.5917 32.1556 14.1181 30.7319 11.2708 27.8847C8.42361 25.0375 7 21.6019 7 17.5778C7 13.5537 8.42361 10.1181 11.2708 7.27083C14.1181 4.42361 17.5727 3 21.6347 3C25.6588 3 29.085 4.42361 31.9132 7.27083C34.7414 10.1181 36.1556 13.5537 36.1556 17.5778C36.1556 19.2102 35.8898 20.7856 35.3583 22.3042C34.8269 23.8227 34.0296 25.2463 32.9667 26.575L48 41.4944L45.4944 44ZM21.6347 28.7389C24.7097 28.7389 27.3292 27.6475 29.4931 25.4646C31.6569 23.2817 32.7389 20.6528 32.7389 17.5778C32.7389 14.5028 31.6569 11.8738 29.4931 9.69097C27.3292 7.5081 24.7097 6.41667 21.6347 6.41667C18.5218 6.41667 15.8738 7.5081 13.691 9.69097C11.5081 11.8738 10.4167 14.5028 10.4167 17.5778C10.4167 20.6528 11.5081 23.2817 13.691 25.4646C15.8738 27.6475 18.5218 28.7389 21.6347 28.7389Z" fill="white"/>
</g>
<defs>
<filter id="filter0_d_10_4" x="0" y="0" width="55" height="55" filterUnits="userSpaceOnUse" color-interpolation-filters="sRGB">
<feFlood flood-opacity="0" result="BackgroundImageFix"/>
<feColorMatrix in="SourceAlpha" type="matrix" values="0 0 0 0 0 0 0 0 0 0 0 0 0 0 0 0 0 0 127 0" result="hardAlpha"/>
<feOffset dy="4"/>
<feGaussianBlur stdDeviation="3.5"/>
<feComposite in2="hardAlpha" operator="out"/>
<feColorMatrix type="matrix" values="0 0 0 0 0 0 0 0 0 0 0 0 0 0 0 0 0 0 0.63 0"/>
<feBlend mode="normal" in2="BackgroundImageFix" result="effect1_dropShadow_10_4"/>
<feBlend mode="normal" in="SourceGraphic" in2="effect1_dropShadow_10_4" result="shape"/>
</filter>
</defs>
</svg>
