<svg width="53" height="53" viewBox="0 0 53 53" fill="none" xmlns="http://www.w3.org/2000/svg">
<path d="M24.5125 53C24.1592 53 23.85 52.8675 23.585 52.6025C23.32 52.3375 23.1875 52.0283 23.1875 51.675C23.1875 51.3217 23.32 51.0125 23.585 50.7475C23.85 50.4825 24.1592 50.35 24.5125 50.35H25.175V44.3212C23.1875 44.1004 21.3104 43.6256 19.5437 42.8969C17.7771 42.1681 16.1871 41.2075 14.7737 40.015L10.5337 44.255L11.0637 44.785C11.2846 45.0058 11.4281 45.2819 11.4944 45.6131C11.5606 45.9444 11.4171 46.2867 11.0637 46.64C10.7987 46.905 10.4896 47.0375 10.1362 47.0375C9.78292 47.0375 9.47375 46.905 9.20875 46.64L6.36 43.8575C6.095 43.5925 5.9625 43.2833 5.9625 42.93C5.9625 42.5767 6.095 42.2454 6.36 41.9363C6.625 41.6713 6.92313 41.5387 7.25438 41.5387C7.58563 41.5387 7.92792 41.6933 8.28125 42.0025L8.67875 42.4L12.9187 38.16C11.7704 36.7025 10.8319 35.1125 10.1031 33.39C9.37438 31.6675 8.89958 29.8125 8.67875 27.825H2.65V28.4875C2.65 28.8408 2.5175 29.15 2.2525 29.415C1.9875 29.68 1.67833 29.8125 1.325 29.8125C0.971667 29.8125 0.6625 29.68 0.3975 29.415C0.1325 29.15 0 28.8408 0 28.4875V24.5125C0 24.1592 0.1325 23.85 0.3975 23.585C0.6625 23.32 0.971667 23.1875 1.325 23.1875C1.67833 23.1875 1.9875 23.32 2.2525 23.585C2.5175 23.85 2.65 24.1592 2.65 24.5125V25.175H8.67875C8.89958 23.1875 9.37438 21.3325 10.1031 19.61C10.8319 17.8875 11.7704 16.2975 12.9187 14.84L8.67875 10.6L8.215 11.0637C7.95 11.3287 7.64083 11.4612 7.2875 11.4612C6.93417 11.4612 6.625 11.3287 6.36 11.0637C6.095 10.7987 5.9625 10.4785 5.9625 10.1031C5.9625 9.72771 6.095 9.4075 6.36 9.1425L9.1425 6.36C9.4075 6.095 9.72771 5.9625 10.1031 5.9625C10.4785 5.9625 10.7987 6.095 11.0637 6.36C11.3287 6.58083 11.4612 6.87896 11.4612 7.25438C11.4612 7.62979 11.3287 7.92792 11.0637 8.14875L10.5337 8.67875L14.7737 12.9187C16.2312 11.7704 17.8212 10.8319 19.5437 10.1031C21.2662 9.37438 23.1213 8.89958 25.1088 8.67875V2.65H24.5125C24.1592 2.65 23.85 2.5175 23.585 2.2525C23.32 1.9875 23.1875 1.67833 23.1875 1.325C23.1875 0.971667 23.32 0.6625 23.585 0.3975C23.85 0.1325 24.1592 0 24.5125 0H28.4875C28.8408 0 29.15 0.1325 29.415 0.3975C29.68 0.6625 29.8125 0.971667 29.8125 1.325C29.8125 1.67833 29.68 1.9875 29.415 2.2525C29.15 2.5175 28.8408 2.65 28.4875 2.65H27.825V8.67875C29.8125 8.89958 31.6675 9.37438 33.39 10.1031C35.1125 10.8319 36.7025 11.7704 38.16 12.9187L42.4 8.67875L42.0025 8.28125C41.6933 8.01625 41.5277 7.70708 41.5056 7.35375C41.4835 7.00042 41.6271 6.66917 41.9363 6.36C42.2013 6.095 42.5104 5.9625 42.8637 5.9625C43.2171 5.9625 43.5262 6.095 43.7912 6.36L46.7062 9.275C46.9713 9.54 47.0927 9.83812 47.0706 10.1694C47.0485 10.5006 46.905 10.7987 46.64 11.0637C46.375 11.3287 46.0658 11.4392 45.7125 11.395C45.3592 11.3508 45.0279 11.1962 44.7188 10.9312L44.3212 10.5337L40.0812 14.7737C41.2296 16.2312 42.1681 17.8323 42.8969 19.5769C43.6256 21.3215 44.1004 23.1875 44.3212 25.175H50.35V24.5125C50.35 24.1592 50.4825 23.85 50.7475 23.585C51.0125 23.32 51.3217 23.1875 51.675 23.1875C52.0283 23.1875 52.3375 23.32 52.6025 23.585C52.8675 23.85 53 24.1592 53 24.5125V28.4875C53 28.8408 52.8675 29.15 52.6025 29.415C52.3375 29.68 52.0283 29.8125 51.675 29.8125C51.3217 29.8125 51.0125 29.68 50.7475 29.415C50.4825 29.15 50.35 28.8408 50.35 28.4875V27.825H44.3212C44.1004 29.8125 43.6256 31.6785 42.8969 33.4231C42.1681 35.1677 41.2296 36.7687 40.0812 38.2262L44.3212 42.4662L44.785 42.0025C45.05 41.7375 45.3592 41.594 45.7125 41.5719C46.0658 41.5498 46.375 41.6713 46.64 41.9363C46.905 42.2013 47.0375 42.5215 47.0375 42.8969C47.0375 43.2723 46.905 43.5925 46.64 43.8575L43.8575 46.64C43.5925 46.905 43.2723 47.0375 42.8969 47.0375C42.5215 47.0375 42.2013 46.905 41.9363 46.64C41.6271 46.3308 41.4946 46.0106 41.5387 45.6794C41.5829 45.3481 41.6933 45.0721 41.87 44.8512L42.4 44.3212L38.16 40.0812C36.7025 41.2296 35.1125 42.1792 33.39 42.93C31.6675 43.6808 29.8125 44.1667 27.825 44.3875V50.35H28.4875C28.8408 50.35 29.15 50.4825 29.415 50.7475C29.68 51.0125 29.8125 51.3217 29.8125 51.675C29.8125 52.0283 29.68 52.3375 29.415 52.6025C29.15 52.8675 28.8408 53 28.4875 53H24.5125ZM26.5 40.4125C30.3867 40.4125 33.6771 39.0544 36.3713 36.3381C39.0654 33.6219 40.4125 30.3425 40.4125 26.5C40.4125 22.6133 39.0654 19.3229 36.3713 16.6287C33.6771 13.9346 30.3867 12.5875 26.5 12.5875C22.6575 12.5875 19.3781 13.9346 16.6619 16.6287C13.9456 19.3229 12.5875 22.6133 12.5875 26.5C12.5875 30.3425 13.9456 33.6219 16.6619 36.3381C19.3781 39.0544 22.6575 40.4125 26.5 40.4125ZM21.8625 36.4375C22.3925 36.4375 22.8562 36.2387 23.2537 35.8412C23.6512 35.4437 23.85 34.98 23.85 34.45C23.85 33.92 23.6512 33.4562 23.2537 33.0588C22.8562 32.6613 22.3925 32.4625 21.8625 32.4625C21.3325 32.4625 20.8688 32.6613 20.4713 33.0588C20.0738 33.4562 19.875 33.92 19.875 34.45C19.875 34.98 20.0738 35.4437 20.4713 35.8412C20.8688 36.2387 21.3325 36.4375 21.8625 36.4375ZM31.1375 36.4375C31.7117 36.4375 32.1865 36.2387 32.5619 35.8412C32.9373 35.4437 33.125 34.98 33.125 34.45C33.125 33.92 32.9373 33.4562 32.5619 33.0588C32.1865 32.6613 31.7117 32.4625 31.1375 32.4625C30.6075 32.4625 30.1438 32.6613 29.7463 33.0588C29.3488 33.4562 29.15 33.92 29.15 34.45C29.15 34.98 29.3488 35.4437 29.7463 35.8412C30.1438 36.2387 30.6075 36.4375 31.1375 36.4375ZM17.225 28.4875C17.7992 28.4875 18.274 28.2887 18.6494 27.8912C19.0248 27.4937 19.2125 27.03 19.2125 26.5C19.2125 25.97 19.0248 25.5063 18.6494 25.1088C18.274 24.7113 17.7992 24.5125 17.225 24.5125C16.695 24.5125 16.2312 24.7113 15.8337 25.1088C15.4362 25.5063 15.2375 25.97 15.2375 26.5C15.2375 27.03 15.4362 27.4937 15.8337 27.8912C16.2312 28.2887 16.695 28.4875 17.225 28.4875ZM26.5 28.4875C27.03 28.4875 27.4937 28.2887 27.8912 27.8912C28.2887 27.4937 28.4875 27.03 28.4875 26.5C28.4875 25.97 28.2887 25.5063 27.8912 25.1088C27.4937 24.7113 27.03 24.5125 26.5 24.5125C25.97 24.5125 25.5063 24.7113 25.1088 25.1088C24.7113 25.5063 24.5125 25.97 24.5125 26.5C24.5125 27.03 24.7113 27.4937 25.1088 27.8912C25.5063 28.2887 25.97 28.4875 26.5 28.4875ZM35.775 28.4875C36.3492 28.4875 36.824 28.2887 37.1994 27.8912C37.5748 27.4937 37.7625 27.03 37.7625 26.5C37.7625 25.97 37.5748 25.5063 37.1994 25.1088C36.824 24.7113 36.3492 24.5125 35.775 24.5125C35.245 24.5125 34.7812 24.7113 34.3838 25.1088C33.9863 25.5063 33.7875 25.97 33.7875 26.5C33.7875 27.03 33.9863 27.4937 34.3838 27.8912C34.7812 28.2887 35.245 28.4875 35.775 28.4875ZM21.8625 20.5375C22.3925 20.5375 22.8562 20.3387 23.2537 19.9412C23.6512 19.5437 23.85 19.08 23.85 18.55C23.85 18.02 23.6512 17.5562 23.2537 17.1588C22.8562 16.7612 22.3925 16.5625 21.8625 16.5625C21.3325 16.5625 20.8688 16.7612 20.4713 17.1588C20.0738 17.5562 19.875 18.02 19.875 18.55C19.875 19.08 20.0738 19.5437 20.4713 19.9412C20.8688 20.3387 21.3325 20.5375 21.8625 20.5375ZM31.1375 20.5375C31.7117 20.5375 32.1865 20.3387 32.5619 19.9412C32.9373 19.5437 33.125 19.08 33.125 18.55C33.125 18.02 32.9373 17.5562 32.5619 17.1588C32.1865 16.7612 31.7117 16.5625 31.1375 16.5625C30.6075 16.5625 30.1438 16.7612 29.7463 17.1588C29.3488 17.5562 29.15 18.02 29.15 18.55C29.15 19.08 29.3488 19.5437 29.7463 19.9412C30.1438 20.3387 30.6075 20.5375 31.1375 20.5375Z" fill="#566586"/>
</svg>
